# xmcd
#
# Track frame offsets: 
#        150
#        21492
#        42380
#        63300
#        89300
#        109302
#        130842
#        151738
#        174471
#        191870
#        215482
#        241507
#        266357
#        287120
#        316777
#        339594
#
# Disc length: 4780 seconds
#
# Revision: 3
# Processed by: cddbd v1.5.2PL0 Copyright (c) Steve Scherf et al.
# Submitted via: ExactAudioCopy v1.0b3
#
DISCID=e112aa10
DTITLE=Various Artist - Late night jazz
DYEAR=2002
DGENRE=Jazz
TTITLE0=Randy Crawford - Give Me The Night
TTITLE1=Peter White - Promenade
TTITLE2=Gerald Albriht - Creepin
TTITLE3=Ronnie Jardan - After hours
TTITLE4=Brian Culbertson - You`ll never find
TTITLE5=Chelli Minucci - Anuthing and Everything
TTITLE6=Rick Braun - Fat Jack and Domino
TTITLE7=Norman Brown - Just between us
TTITLE8=Steve Cole - It`s gona be alright
TTITLE9=Chuck Loeb - The music inside
TTITLE10=Marcus Miller - Reb baron
TTITLE11=Dave Koz - In the name of love
TTITLE12=Paul Taylor and Peter White - Come morning
TTITLE13=Spyro Gyra - The river between
TTITLE14=Nelson Rangell - Reasons
TTITLE15=Chris Botti - When i see you
EXTD=YEAR: 2002
EXTT0=
EXTT1=
EXTT2=
EXTT3=
EXTT4=
EXTT5=
EXTT6=
EXTT7=
EXTT8=
EXTT9=
EXTT10=
EXTT11=
EXTT12=
EXTT13=
EXTT14=
EXTT15=
PLAYORDER=
